<?xml version="1.0" encoding="UTF-8"?>
<svg id="Layer_1" data-name="Layer 1" xmlns="http://www.w3.org/2000/svg" width="6.1cm" height="2.9cm" version="1.1" xmlns:xlink="http://www.w3.org/1999/xlink" viewBox="0 0 174.3 82.8">
  <defs>
    <style>
      .cls-1 {
        fill: #f8ca27;
      }

      .cls-1, .cls-2, .cls-3, .cls-4, .cls-5, .cls-6, .cls-7, .cls-8, .cls-9, .cls-10, .cls-11, .cls-12, .cls-13, .cls-14, .cls-15, .cls-16, .cls-17, .cls-18, .cls-19, .cls-20, .cls-21, .cls-22, .cls-23, .cls-24, .cls-25, .cls-26, .cls-27, .cls-28, .cls-29, .cls-30, .cls-31, .cls-32, .cls-33, .cls-34, .cls-35, .cls-36, .cls-37, .cls-38, .cls-39, .cls-40, .cls-41, .cls-42, .cls-43, .cls-44, .cls-45, .cls-46, .cls-47, .cls-48, .cls-49, .cls-50, .cls-51, .cls-52, .cls-53, .cls-54, .cls-55, .cls-56, .cls-57, .cls-58, .cls-59, .cls-60, .cls-61, .cls-62, .cls-63, .cls-64, .cls-65, .cls-66, .cls-67, .cls-68, .cls-69, .cls-70, .cls-71, .cls-72, .cls-73, .cls-74, .cls-75, .cls-76, .cls-77, .cls-78, .cls-79, .cls-80, .cls-81, .cls-82, .cls-83 {
        stroke-width: 0px;
      }

      .cls-2 {
        fill: #f47923;
      }

      .cls-3 {
        fill: #f6b125;
      }

      .cls-4 {
        fill: #f4b425;
      }

      .cls-5 {
        fill: #f3ad26;
      }

      .cls-6 {
        fill: #f5bc24;
      }

      .cls-7 {
        fill: #f49027;
      }

      .cls-8 {
        fill: #f38a23;
      }

      .cls-9 {
        fill: #f5ae25;
      }

      .cls-10 {
        fill: #f9d325;
      }

      .cls-11 {
        fill: #231f20;
      }

      .cls-12 {
        fill: #f39f27;
      }

      .cls-13 {
        fill: #f28224;
      }

      .cls-14 {
        fill: #f5a826;
      }

      .cls-15 {
        fill: #f59727;
      }

      .cls-16 {
        fill: #f6af25;
      }

      .cls-17 {
        fill: #f17c24;
      }

      .cls-18 {
        fill: #fae21d;
      }

      .cls-19 {
        fill: #f49527;
      }

      .cls-20 {
        fill: #f38c25;
      }

      .cls-21 {
        fill: #f4a426;
      }

      .cls-22 {
        fill: #f8db24;
      }

      .cls-23 {
        fill: #f6bd23;
      }

      .cls-24 {
        fill: #f9e11e;
      }

      .cls-25 {
        fill: #f37225;
      }

      .cls-26 {
        fill: #f38923;
      }

      .cls-27 {
        fill: #f29827;
      }

      .cls-28 {
        fill: #f6c126;
      }

      .cls-29 {
        fill: #ef8125;
      }

      .cls-30 {
        fill: #f7c525;
      }

      .cls-31 {
        fill: #f5ac26;
      }

      .cls-32 {
        fill: #f5ba24;
      }

      .cls-33 {
        fill: #f8cc2b;
      }

      .cls-34 {
        fill: none;
      }

      .cls-35 {
        fill: #f4a326;
      }

      .cls-36 {
        fill: #f6b324;
      }

      .cls-37 {
        fill: #fae41c;
      }

      .cls-38 {
        fill: #f9e123;
      }

      .cls-39 {
        fill: #f9dd1f;
      }

      .cls-40 {
        fill: #f7c326;
      }

      .cls-41 {
        fill: #f7d426;
      }

      .cls-42 {
        fill: #f36e27;
      }

      .cls-43 {
        fill: #f9d02a;
      }

      .cls-44 {
        fill: #f39a27;
      }

      .cls-45 {
        fill: #f39d27;
      }

      .cls-46 {
        fill: #86c54e;
      }

      .cls-47 {
        fill: #fae222;
      }

      .cls-48 {
        fill: #f5b625;
      }

      .cls-49 {
        fill: #f37325;
      }

      .cls-50 {
        fill: #f8ce2a;
      }

      .cls-51 {
        fill: #f28524;
      }

      .cls-52 {
        fill: #f7d626;
      }

      .cls-53 {
        fill: #f17526;
      }

      .cls-54 {
        fill: #f4a127;
      }

      .cls-55 {
        fill: #f9d12a;
      }

      .cls-56 {
        fill: #f49327;
      }

      .cls-57 {
        fill: #f36e25;
      }

      .cls-84 {
        clip-path: url(#clippath);
      }

      .cls-58 {
        fill: #f4b225;
      }

      .cls-59 {
        fill: #f48e25;
      }

      .cls-60 {
        fill: #f4a626;
      }

      .cls-61 {
        fill: #f17e24;
      }

      .cls-62 {
        fill: #f17726;
      }

      .cls-63 {
        fill: #f17a24;
      }

      .cls-64 {
        fill: #f39b29;
      }

      .cls-65 {
        fill: #f47b23;
      }

      .cls-66 {
        fill: #f7c728;
      }

      .cls-67 {
        fill: #f37027;
      }

      .cls-68 {
        fill: #f17724;
      }

      .cls-69 {
        fill: #f39a2a;
      }

      .cls-70 {
        fill: #f47723;
      }

      .cls-71 {
        fill: #f5b824;
      }

      .cls-72 {
        fill: #f6bf26;
      }

      .cls-73 {
        fill: #f5aa26;
      }

      .cls-74 {
        fill: #f19128;
      }

      .cls-75 {
        fill: #f9df23;
      }

      .cls-76 {
        fill: #f28024;
      }

      .cls-77 {
        fill: #facd2a;
      }

      .cls-78 {
        fill: #f7c828;
      }

      .cls-79 {
        fill: #fad824;
      }

      .cls-80 {
        fill: #f38a25;
      }

      .cls-81 {
        fill: #f38724;
      }

      .cls-82 {
        fill: #f28324;
      }

      .cls-83 {
        fill: #f8d925;
      }
    </style>
    <clipPath id="clippath">
      <path class="cls-34" d="M50.4,57.5c0,8.3,6.7,15,15,15s15-6.7,15-15-6.7-15-15-15-15,6.7-15,15"/>
    </clipPath>
  </defs>
  <g class="cls-84">
    <rect class="cls-57" x="50.4" y="42.5" width="30" height="30"/>
    <path class="cls-57" d="M63,70.1c-5.4-.5-10.4-2-14.9-4.3h1.1v-24.4h32.4v23.9h3.8c-2.2,1.2-4.5,2.2-6.9,3-4.8,1.6-10.1,2.2-15.4,1.8"/>
    <path class="cls-42" d="M63,69.9c-5.4-.5-10.4-2-14.9-4.3h1v-24.3h32.4v23.8h3.7c-2.2,1.2-4.5,2.2-6.9,3-4.8,1.6-10,2.2-15.4,1.8"/>
    <path class="cls-42" d="M63,69.7c-5.3-.5-10.3-2-14.8-4.3h.9v-24.1h32.4v23.6h3.6c-2.2,1.2-4.5,2.2-6.9,3-4.8,1.6-10,2.2-15.3,1.8"/>
    <path class="cls-67" d="M63,69.6c-5.3-.5-10.3-2-14.7-4.3h.9v-24h32.4v23.5h3.6c-2.2,1.2-4.5,2.2-6.8,3-4.8,1.6-9.9,2.2-15.3,1.8"/>
    <path class="cls-67" d="M63,69.4c-5.3-.4-10.2-2-14.7-4.3h.8v-23.8h32.4v23.4h3.5c-2.2,1.2-4.4,2.2-6.8,3-4.8,1.6-9.9,2.2-15.2,1.8"/>
    <path class="cls-67" d="M63.1,69.3c-5.3-.4-10.2-1.9-14.6-4.3h.7v-23.7h32.4v23.2h3.4c-2.2,1.2-4.4,2.2-6.8,3-4.7,1.6-9.8,2.2-15.1,1.8"/>
    <path class="cls-25" d="M63.1,69.1c-5.2-.4-10.2-1.9-14.6-4.2h.6v-23.5h32.4v23.1h3.3c-2.1,1.2-4.4,2.2-6.8,3-4.7,1.5-9.8,2.2-15.1,1.7"/>
    <path class="cls-25" d="M63.1,68.9c-5.2-.4-10.1-1.9-14.5-4.2h.6v-23.4h32.4v22.9h3.2c-2.1,1.2-4.4,2.2-6.7,2.9-4.7,1.5-9.8,2.2-15,1.7"/>
    <path class="cls-25" d="M63.1,68.8c-5.2-.4-10.1-1.9-14.4-4.2h.5v-23.3h32.4v22.8h3.2c-2.1,1.2-4.4,2.2-6.7,2.9-4.7,1.5-9.7,2.2-14.9,1.7"/>
    <path class="cls-49" d="M63.1,68.6c-5.2-.4-10-1.9-14.4-4.2h.4v-23.1h32.4v22.7h3.1c-2.1,1.2-4.3,2.2-6.7,2.9-4.7,1.5-9.7,2.2-14.9,1.7"/>
    <path class="cls-49" d="M63.1,68.5c-5.2-.4-10-1.9-14.3-4.2h.3v-23h32.4v22.5h3c-2.1,1.2-4.3,2.2-6.6,2.9-4.6,1.5-9.6,2.1-14.8,1.7"/>
    <path class="cls-53" d="M63.1,68.3c-5.1-.4-10-1.9-14.2-4.2h.3v-22.8h32.4v22.4h2.9c-2.1,1.2-4.3,2.1-6.6,2.9-4.6,1.5-9.6,2.1-14.7,1.7"/>
    <path class="cls-53" d="M63.1,68.1c-5.1-.4-9.9-1.9-14.2-4.1h.2v-22.7h32.4v22.2h2.8c-2.1,1.2-4.3,2.1-6.6,2.9-4.6,1.5-9.6,2.1-14.7,1.7"/>
    <path class="cls-62" d="M63.2,68c-5.1-.4-9.9-1.9-14.1-4.1h.1v-22.5h32.4v22.1h2.8c-2.1,1.2-4.3,2.1-6.6,2.9-4.6,1.5-9.5,2.1-14.6,1.7"/>
    <path class="cls-62" d="M63.2,67.8c-5.1-.4-9.8-1.9-14.1-4.1h0v-22.4h32.4v17.9h8.5c-7.2,6.1-16.8,9.4-26.9,8.6"/>
    <path class="cls-68" d="M63.2,67.7c-5.1-.4-9.8-1.9-14-4.1-2.1-1.1-4.1-2.4-5.9-3.9h5.9v-18.4h32.4v17.8h8.4c-7.2,6.1-16.7,9.4-26.8,8.5"/>
    <path class="cls-70" d="M63.2,67.5c-5-.4-9.7-1.9-13.9-4.1-2.1-1.1-4.1-2.4-5.9-3.9h5.8v-18.2h32.4v17.7h8.3c-7.2,6-16.6,9.3-26.7,8.5"/>
    <path class="cls-2" d="M63.2,67.3c-5-.4-9.7-1.8-13.9-4-2.1-1.1-4.1-2.4-5.9-3.9h5.7v-18.1h32.4v17.6h8.2c-7.1,6-16.5,9.3-26.6,8.5"/>
    <path class="cls-65" d="M63.2,67.2c-5-.4-9.7-1.8-13.8-4-2.1-1.1-4-2.4-5.9-3.8h5.6v-18h32.4v17.4h8.1c-7.1,6-16.5,9.3-26.4,8.4"/>
    <path class="cls-65" d="M63.2,67c-5-.4-9.6-1.8-13.8-4-2.1-1.1-4-2.4-5.8-3.8h5.5v-17.9h32.4v17.3h8c-7.1,6-16.4,9.2-26.3,8.4"/>
    <path class="cls-63" d="M63.3,66.9c-4.9-.4-9.6-1.8-13.7-4-2.1-1.1-4-2.4-5.8-3.8h5.4v-17.7h32.4v17.2h7.9c-7,5.9-16.3,9.2-26.2,8.3"/>
    <path class="cls-17" d="M63.3,66.7c-4.9-.4-9.5-1.8-13.6-4-2.1-1.1-4-2.4-5.8-3.8h5.3v-17.6h32.4v17.1h7.8c-7,5.9-16.2,9.1-26.1,8.3"/>
    <path class="cls-17" d="M63.3,66.5c-4.9-.4-9.5-1.8-13.6-4-2-1.1-4-2.3-5.8-3.8h5.2v-17.5h32.4v16.9h7.7c-7,5.9-16.2,9.1-26,8.3"/>
    <path class="cls-17" d="M63.3,66.4c-4.9-.4-9.4-1.8-13.5-3.9-2-1.1-4-2.3-5.7-3.8h5.1v-17.4h32.4v16.8h7.6c-6.9,5.9-16.1,9.1-25.8,8.2"/>
    <path class="cls-17" d="M63.3,66.2c-4.9-.4-9.4-1.8-13.5-3.9-2-1.1-3.9-2.3-5.7-3.8h5v-17.2h32.4v16.7h7.5c-6.9,5.8-16,9-25.7,8.2"/>
    <path class="cls-61" d="M63.3,66.1c-4.8-.4-9.4-1.8-13.4-3.9-2-1.1-3.9-2.3-5.7-3.7h4.9v-17.1h32.4v16.6h7.4c-6.9,5.8-15.9,9-25.6,8.2"/>
    <path class="cls-61" d="M63.3,65.9c-4.8-.4-9.3-1.8-13.3-3.9-2-1.1-3.9-2.3-5.6-3.7h4.8v-17h32.4v16.5h7.3c-6.8,5.8-15.9,8.9-25.5,8.1"/>
    <path class="cls-76" d="M63.3,65.7c-4.8-.4-9.3-1.8-13.3-3.9-2-1.1-3.9-2.3-5.6-3.7h4.7v-16.9h32.4v16.3h7.2c-6.8,5.7-15.8,8.9-25.4,8.1"/>
    <path class="cls-76" d="M63.4,65.6c-4.8-.4-9.2-1.7-13.2-3.8-2-1-3.9-2.3-5.6-3.7h4.6v-16.7h32.4v16.2h7.1c-6.8,5.7-15.7,8.9-25.3,8"/>
    <path class="cls-76" d="M63.4,65.4c-4.7-.4-9.2-1.7-13.1-3.8-2-1-3.8-2.3-5.6-3.7h4.5v-16.6h32.4v16.1h7c-6.7,5.7-15.7,8.8-25.1,8"/>
    <path class="cls-29" d="M63.4,65.3c-4.7-.4-9.1-1.7-13.1-3.8-2-1-3.8-2.3-5.5-3.6h4.4v-16.5h32.4v16h6.9c-6.7,5.7-15.6,8.8-25,8"/>
    <path class="cls-13" d="M63.4,65.1c-4.7-.4-9.1-1.7-13-3.8-2-1-3.8-2.2-5.5-3.6h4.3v-16.4h32.4v15.8h6.7c-6.7,5.6-15.5,8.7-24.9,7.9"/>
    <path class="cls-13" d="M63.4,64.9c-4.7-.4-9.1-1.7-13-3.8-2-1-3.8-2.2-5.5-3.6h4.2v-16.2h32.4v15.7h6.6c-6.6,5.6-15.4,8.7-24.8,7.9"/>
    <path class="cls-82" d="M63.4,64.8c-4.7-.4-9-1.7-12.9-3.8-1.9-1-3.8-2.2-5.5-3.6h4.1v-16.1h32.4v15.6h6.5c-6.6,5.6-15.4,8.6-24.7,7.9"/>
    <path class="cls-82" d="M63.4,64.6c-4.6-.4-9-1.7-12.8-3.7-1.9-1-3.8-2.2-5.4-3.6h4v-16h32.4v15.5h6.4c-6.6,5.6-15.3,8.6-24.6,7.8"/>
    <path class="cls-82" d="M63.5,64.5c-9.2-.8-17.3-5.2-22.8-11.8h8.5v-11.4h32.4v15.3h6.3c-6.6,5.5-15.2,8.6-24.4,7.8"/>
    <path class="cls-51" d="M63.5,64.3c-9.2-.8-17.2-5.2-22.7-11.7h8.4v-11.3h32.4v15.2h6.2c-6.5,5.5-15.1,8.5-24.3,7.7"/>
    <path class="cls-81" d="M63.5,64.1c-9.1-.8-17.1-5.2-22.6-11.7h8.2v-11.1h32.4v15.1h6.1c-6.5,5.5-15.1,8.5-24.2,7.7"/>
    <path class="cls-81" d="M63.5,64c-9.1-.8-17-5.1-22.5-11.6h8.1v-11.1h32.4v15h6c-6.5,5.5-15,8.4-24.1,7.7"/>
    <path class="cls-81" d="M63.5,63.8c-9-.8-16.9-5.1-22.4-11.6h8v-10.9h32.4v14.9h5.9c-6.4,5.4-14.9,8.4-24,7.6"/>
    <path class="cls-26" d="M63.5,63.7c-9-.8-16.8-5.1-22.2-11.5h7.9v-10.8h32.4v14.7h5.8c-6.4,5.4-14.9,8.4-23.9,7.6"/>
    <path class="cls-26" d="M63.5,63.5c-9-.8-16.8-5.1-22.1-11.4h7.7v-10.7h32.4v14.6h5.7c-6.4,5.4-14.8,8.3-23.7,7.6"/>
    <path class="cls-26" d="M63.5,63.3c-8.9-.8-16.7-5-22-11.4h7.6v-10.6h32.4v14.5h5.6c-6.3,5.4-14.7,8.3-23.6,7.5"/>
    <path class="cls-8" d="M63.6,63.2c-8.9-.8-16.6-5-21.9-11.3h7.5v-10.5h32.4v14.4h5.5c-6.3,5.3-14.6,8.2-23.5,7.5"/>
    <path class="cls-80" d="M63.6,63c-8.8-.8-16.5-5-21.8-11.3h7.4v-10.4h32.4v14.2h5.4c-6.3,5.3-14.6,8.2-23.4,7.5"/>
    <path class="cls-80" d="M63.6,62.9c-8.8-.7-16.4-5-21.7-11.2h7.2v-10.3h32.4v14.1h5.3c-6.2,5.3-14.5,8.2-23.3,7.4"/>
    <path class="cls-20" d="M63.6,62.7c-8.7-.7-16.3-4.9-21.6-11.2h7.1v-10.2h32.4v14h5.2c-6.2,5.2-14.4,8.1-23.2,7.4"/>
    <path class="cls-59" d="M63.6,62.5c-8.7-.7-16.3-4.9-21.5-11.1h7v-10.1h32.4v13.9h5.1c-6.2,5.2-14.3,8.1-23,7.3"/>
    <path class="cls-59" d="M63.6,62.4c-8.6-.7-16.2-4.9-21.4-11h6.9v-10h32.4v13.8h5c-6.1,5.2-14.3,8-22.9,7.3"/>
    <path class="cls-59" d="M63.6,62.2c-8.6-.7-16.1-4.9-21.3-11h6.8v-9.9h32.4v13.6h4.9c-6.1,5.2-14.2,8-22.8,7.3"/>
    <path class="cls-7" d="M63.7,62.1c-8.6-.7-16-4.9-21.1-10.9h6.6v-9.8h32.4v13.5h4.8c-6.1,5.1-14.1,7.9-22.7,7.2"/>
    <path class="cls-7" d="M63.7,61.9c-8.5-.7-15.9-4.8-21-10.9h6.5v-9.7h32.4v13.4h4.7c-6.1,5.1-14.1,7.9-22.6,7.2"/>
    <path class="cls-74" d="M63.7,61.7c-8.5-.7-15.8-4.8-20.9-10.8h6.4v-9.6h32.4v13.3h4.6c-6,5.1-14,7.9-22.4,7.2"/>
    <path class="cls-74" d="M63.7,61.6c-8.4-.7-15.8-4.8-20.8-10.8h6.3v-9.5h32.4v13.1h4.5c-6,5.1-13.9,7.8-22.3,7.1"/>
    <path class="cls-74" d="M63.7,61.4c-8.4-.7-15.7-4.7-20.7-10.7h6.1v-9.4h32.4v13h4.4c-6,5-13.8,7.8-22.2,7.1"/>
    <path class="cls-56" d="M63.7,61.3c-8.3-.7-15.6-4.7-20.6-10.6h6v-9.3h32.4v12.9h4.3c-5.9,5-13.8,7.7-22.1,7"/>
    <path class="cls-56" d="M63.7,61.1c-8.3-.7-15.5-4.7-20.5-10.6h5.9v-9.2h32.4v12.8h4.2c-5.9,5-13.7,7.7-22,7"/>
    <path class="cls-56" d="M63.8,60.9c-8.3-.7-15.4-4.7-20.4-10.5h5.8v-9.1h32.4v12.6h4c-5.9,5-13.6,7.7-21.9,7"/>
    <path class="cls-19" d="M63.8,60.8c-8.2-.7-15.4-4.7-20.3-10.5h5.7v-9h32.4v12.5h3.9c-5.8,4.9-13.5,7.6-21.7,6.9"/>
    <path class="cls-15" d="M63.8,60.6c-8.2-.7-15.3-4.6-20.2-10.4h5.5v-8.9h32.4v12.4h3.8c-5.8,4.9-13.5,7.6-21.6,6.9"/>
    <path class="cls-15" d="M63.8,60.5c-8.1-.7-15.2-4.6-20.1-10.4h5.4v-8.8h32.4v12.3h3.7c-5.8,4.9-13.4,7.5-21.5,6.9"/>
    <path class="cls-15" d="M63.8,60.3c-8.1-.7-15.1-4.6-19.9-10.3h5.3v-8.7h32.4v12.2h3.6c-5.7,4.8-13.3,7.5-21.4,6.8"/>
    <path class="cls-27" d="M63.8,60.1c-8-.7-15-4.5-19.8-10.3h5.2v-8.6h32.4v12h3.5c-5.7,4.8-13.2,7.5-21.3,6.8"/>
    <path class="cls-27" d="M63.8,60c-8-.7-14.9-4.5-19.7-10.2h5v-8.5h32.4v11.9h3.4c-5.7,4.8-13.2,7.4-21.2,6.7"/>
    <path class="cls-27" d="M63.8,59.8c-7.9-.7-14.9-4.5-19.6-10.1h4.9v-8.4h32.4v11.8h3.3c-5.6,4.8-13.1,7.4-21,6.7"/>
    <path class="cls-44" d="M63.9,59.6c-7.9-.7-14.8-4.5-19.5-10.1h4.8v-8.2h32.4v11.7h3.2c-5.6,4.7-13,7.3-20.9,6.7"/>
    <path class="cls-69" d="M63.9,59.5c-7.8-.7-14.7-4.5-19.4-10h4.7v-8.1h32.4v11.5h3.1c-5.6,4.7-13,7.3-20.8,6.6"/>
    <path class="cls-69" d="M63.9,59.3c-7.8-.7-14.6-4.4-19.3-10h4.5v-8h32.4v11.4h3c-5.5,4.7-12.9,7.3-20.7,6.6"/>
    <path class="cls-64" d="M63.9,59.2c-7.8-.7-14.5-4.4-19.2-9.9h4.4v-7.9h32.4v11.3h2.9c-5.5,4.7-12.8,7.2-20.6,6.6"/>
    <path class="cls-64" d="M63.9,59c-7.7-.6-14.4-4.4-19.1-9.9h4.3v-7.8h32.4v11.2h2.8c-5.5,4.6-12.7,7.2-20.5,6.5"/>
    <path class="cls-64" d="M63.9,58.9c-7.7-.7-14.4-4.3-19-9.8h4.2v-7.7h32.4v11.1h2.7c-5.5,4.6-12.7,7.1-20.3,6.5"/>
    <path class="cls-45" d="M63.9,58.7c-7.6-.6-14.3-4.3-18.9-9.7h4.1v-7.6h32.4v10.9h2.6c-5.4,4.6-12.6,7.1-20.2,6.4"/>
    <path class="cls-12" d="M64,58.5c-7.6-.6-14.2-4.3-18.7-9.7h3.9v-7.5h32.4v10.8h2.5c-5.4,4.6-12.5,7-20.1,6.4"/>
    <path class="cls-12" d="M64,58.4c-7.5-.6-14.1-4.3-18.6-9.6h3.8v-7.4h32.4v10.7h2.4c-5.4,4.5-12.4,7-20,6.4"/>
    <path class="cls-12" d="M64,58.2c-7.5-.6-14-4.2-18.5-9.6h3.7v-7.3h32.4v10.6h2.3c-5.3,4.5-12.4,7-19.9,6.3"/>
    <path class="cls-54" d="M64,58c-7.5-.6-13.9-4.2-18.4-9.5h3.6v-7.2h32.4v10.4h2.2c-5.3,4.5-12.3,6.9-19.8,6.3"/>
    <path class="cls-54" d="M64,57.9c-7.4-.6-13.9-4.2-18.3-9.5h3.4v-7.1h32.4v10.3h2.1c-5.3,4.4-12.2,6.9-19.6,6.3"/>
    <path class="cls-54" d="M64,57.7c-7.4-.6-13.8-4.2-18.2-9.4h3.3v-7h32.4v10.2h2c-5.2,4.4-12.2,6.8-19.5,6.2"/>
    <path class="cls-35" d="M64,57.6c-7.3-.6-13.7-4.1-18.1-9.3h3.2v-6.9h32.4v10.1h1.9c-5.2,4.4-12.1,6.8-19.4,6.2"/>
    <path class="cls-35" d="M64.1,57.4c-7.3-.6-13.6-4.1-18-9.3h3.1v-6.8h32.4v10h1.8c-5.2,4.4-12,6.7-19.3,6.1"/>
    <path class="cls-35" d="M64.1,57.2c-7.2-.6-13.5-4.1-17.9-9.2h2.9v-6.7h32.4v9.8h1.7c-5.1,4.3-11.9,6.7-19.2,6.1"/>
    <path class="cls-21" d="M64.1,57.1c-7.2-.6-13.5-4.1-17.8-9.2h2.8v-6.6h32.4v9.7h1.6c-5.1,4.3-11.9,6.7-19,6.1"/>
    <path class="cls-60" d="M64.1,56.9c-7.1-.6-13.4-4-17.7-9.1h2.7v-6.5h32.4v9.6h1.5c-5.1,4.3-11.8,6.6-18.9,6"/>
    <path class="cls-60" d="M64.1,56.8c-7.1-.6-13.3-4-17.5-9.1h2.6v-6.4h32.4v9.5h1.4c-5,4.3-11.7,6.6-18.8,6"/>
    <path class="cls-60" d="M64.1,56.6c-7.1-.6-13.2-4-17.4-9h2.5v-6.3h32.4v9.3h1.2c-5,4.2-11.6,6.5-18.7,5.9"/>
    <path class="cls-14" d="M64.1,56.4c-7-.6-13.1-4-17.3-9h2.3v-6.2h32.4v9.2h1.1c-5,4.2-11.6,6.5-18.6,5.9"/>
    <path class="cls-14" d="M64.1,56.3c-7-.6-13-3.9-17.2-8.9h2.2v-6.1h32.4v9.1h1c-5,4.2-11.5,6.5-18.5,5.9"/>
    <path class="cls-14" d="M64.2,56.1c-6.9-.6-12.9-3.9-17.1-8.8h2.1v-6h32.4v9h.9c-4.9,4.2-11.4,6.4-18.4,5.8"/>
    <path class="cls-73" d="M64.2,56c-6.9-.6-12.9-3.9-17-8.8h2v-5.9h32.4v8.8h.8c-4.9,4.1-11.4,6.4-18.2,5.8"/>
    <path class="cls-73" d="M64.2,55.8c-6.8-.6-12.8-3.9-16.9-8.7h1.8v-5.8h32.4v8.7h.7c-4.9,4.1-11.3,6.3-18.1,5.8"/>
    <path class="cls-73" d="M64.2,55.6c-6.8-.6-12.7-3.8-16.8-8.7h1.7v-5.7h32.4v8.6h.6c-4.8,4.1-11.2,6.3-18,5.7"/>
    <path class="cls-31" d="M64.2,55.5c-6.7-.6-12.6-3.8-16.7-8.6h1.6v-5.6h32.4v8.5h.5c-4.8,4-11.1,6.3-17.9,5.7"/>
    <path class="cls-31" d="M64.2,55.3c-6.7-.6-12.5-3.8-16.6-8.6h1.5v-5.5h32.4v8.4h.4c-4.8,4-11.1,6.2-17.8,5.7"/>
    <path class="cls-31" d="M64.2,55.2c-6.7-.6-12.5-3.8-16.4-8.5h1.3v-5.3h32.4v8.2h.3c-4.7,4-11,6.2-17.6,5.6"/>
    <path class="cls-5" d="M64.3,55c-6.6-.6-12.4-3.7-16.3-8.4h1.2v-5.2h32.4v8.1h.2c-4.7,4-10.9,6.1-17.5,5.6"/>
    <path class="cls-9" d="M64.3,54.8c-6.6-.6-12.3-3.7-16.2-8.4h1.1v-5.1h32.4l8.5-8.2c-1.1,13.1-12.7,22.9-25.8,21.8"/>
    <path class="cls-16" d="M64.3,54.7c-6.5-.6-12.2-3.7-16.1-8.3h1v-5h32.4l8.3-8.3c-1.1,13-12.6,22.7-25.6,21.6"/>
    <path class="cls-16" d="M64.3,54.5c-6.5-.5-12.1-3.7-16-8.3h.9v-4.9h32.4l8.2-8.3c-1.1,13-12.5,22.6-25.5,21.5"/>
    <path class="cls-16" d="M64.3,54.4c-6.4-.5-12-3.6-15.9-8.2h.7v-4.8h32.4l8-8.3c-1.1,12.9-12.4,22.4-25.3,21.3"/>
    <path class="cls-3" d="M64.3,54.2c-6.4-.5-12-3.6-15.8-8.2h.6v-4.7h32.4l7.9-8.3c-1.1,12.8-12.3,22.3-25.1,21.2"/>
    <path class="cls-3" d="M64.3,54c-6.3-.5-11.9-3.6-15.7-8.1h.5v-4.6h32.4l7.7-8.3c-1.1,12.7-12.2,22.1-24.9,21"/>
    <path class="cls-36" d="M64.3,53.9c-6.3-.5-11.8-3.6-15.6-8.1h.4v-4.5h32.4l7.5-8.3c-1.1,12.6-12.2,22-24.8,20.9"/>
    <path class="cls-58" d="M64.4,53.7c-6.3-.5-11.7-3.5-15.5-8h.2v-4.4h32.4l7.4-8.3c-1.1,12.5-12.1,21.8-24.6,20.8"/>
    <path class="cls-36" d="M64.4,53.6c-6.2-.5-11.6-3.5-15.4-7.9h.1v-4.3h32.4l7.2-8.4c-1.1,12.4-12,21.7-24.4,20.6"/>
    <path class="cls-4" d="M64.4,53.4c-6.2-.5-11.5-3.5-15.2-7.9-1.9-2.2-3.3-4.7-4.2-7.5l4.2,3.3h32.4l7.1-8.4c-1,12.3-11.9,21.5-24.2,20.5"/>
    <path class="cls-4" d="M64.4,53.2c-6.1-.5-11.5-3.5-15.1-7.8-1.8-2.2-3.3-4.7-4.2-7.5l4,3.4h32.4l6.9-8.4c-1,12.3-11.8,21.3-24.1,20.3"/>
    <path class="cls-48" d="M64.4,53.1c-6.1-.5-11.4-3.4-15-7.8-1.8-2.2-3.2-4.7-4.1-7.4l3.9,3.4h32.4l6.7-8.4c-1,12.2-11.7,21.2-23.9,20.2"/>
    <path class="cls-48" d="M64.4,52.9c-6-.5-11.3-3.4-14.9-7.7-1.8-2.1-3.2-4.6-4.1-7.3l3.7,3.5h32.4l6.6-8.4c-1,12.1-11.6,21-23.7,20"/>
    <path class="cls-48" d="M64.4,52.8c-6-.5-11.2-3.4-14.8-7.7-1.8-2.1-3.2-4.6-4.1-7.3l3.6,3.5h32.4l6.4-8.4c-1,12-11.6,20.9-23.5,19.9"/>
    <path class="cls-71" d="M64.5,52.6c-5.9-.5-11.1-3.4-14.7-7.6-1.8-2.1-3.2-4.6-4-7.2l3.4,3.5h32.4l6.3-8.4c-1,11.9-11.5,20.7-23.4,19.7"/>
    <path class="cls-71" d="M64.5,52.4c-5.9-.5-11-3.3-14.6-7.5-1.8-2.1-3.1-4.5-4-7.2l3.3,3.6h32.4l6.1-8.5c-1,11.8-11.4,20.6-23.2,19.6"/>
    <path class="cls-71" d="M64.5,52.3c-5.9-.5-11-3.3-14.5-7.5-1.8-2.1-3.1-4.5-4-7.1l3.1,3.6h32.4l5.9-8.5c-1,11.7-11.3,20.4-23,19.4"/>
    <path class="cls-32" d="M64.5,52.1c-5.8-.5-10.9-3.3-14.4-7.4-1.7-2.1-3.1-4.5-4-7.1l3,3.7h32.4l5.8-8.5c-1,11.6-11.2,20.3-22.9,19.3"/>
    <path class="cls-32" d="M64.5,52c-5.8-.5-10.8-3.3-14.3-7.4-1.7-2.1-3.1-4.4-3.9-7l2.8,3.7h32.4l5.6-8.5c-1,11.5-11.1,20.1-22.7,19.1"/>
    <path class="cls-6" d="M64.5,51.8c-5.7-.5-10.7-3.2-14.2-7.3-1.7-2-3.1-4.4-3.9-7l2.7,3.8h32.4l5.5-8.5c-1,11.5-11,20-22.5,19"/>
    <path class="cls-6" d="M64.5,51.6c-5.7-.5-10.6-3.2-14-7.3-1.7-2-3-4.4-3.9-6.9l2.5,3.9h32.4l3-.6c-1.3,2.4-2.9,4.5-5,6.2-4,3.4-9.4,5.3-15.1,4.8"/>
    <path class="cls-6" d="M64.6,51.5c-5.6-.5-10.5-3.2-13.9-7.2-1.7-2-3-4.3-3.8-6.9l2.4,3.9h32.4l2.9-.7c-1.2,2.4-2.9,4.4-4.9,6.1-4,3.4-9.3,5.2-14.9,4.8"/>
    <path class="cls-23" d="M64.6,51.3c-5.6-.5-10.5-3.2-13.8-7.1-1.7-2-3-4.3-3.8-6.8l2.2,3.9h32.4l2.7-.8c-1.2,2.3-2.9,4.4-4.9,6.1-4,3.4-9.2,5.2-14.8,4.7"/>
    <path class="cls-72" d="M64.6,51.2c-5.6-.5-10.4-3.1-13.7-7.1-1.7-2-3-4.3-3.8-6.8l2,4h32.4l2.6-.9c-1.2,2.3-2.9,4.4-4.8,6-3.9,3.3-9.2,5.2-14.7,4.7"/>
    <path class="cls-72" d="M64.6,51c-5.5-.5-10.3-3.1-13.6-7-1.6-2-2.9-4.2-3.7-6.7l1.9,4.1h32.4l2.4-.9c-1.2,2.3-2.9,4.3-4.8,6-3.9,3.3-9.1,5.1-14.6,4.6"/>
    <path class="cls-72" d="M64.6,50.8c-5.5-.5-10.2-3.1-13.5-7-1.6-1.9-2.9-4.2-3.7-6.6l1.7,4.1h32.4l2.3-1c-1.2,2.3-2.8,4.3-4.8,5.9-3.9,3.3-9,5.1-14.5,4.6"/>
    <path class="cls-28" d="M64.6,50.7c-5.4-.5-10.1-3.1-13.4-6.9-1.6-1.9-2.9-4.2-3.7-6.6l1.6,4.1h32.4l2.1-1.1c-1.2,2.3-2.8,4.3-4.7,5.9-3.9,3.2-8.9,5-14.4,4.6"/>
    <path class="cls-40" d="M64.6,50.5c-5.4-.5-10.1-3-13.3-6.9-1.6-1.9-2.9-4.1-3.7-6.5l1.4,4.2h32.4l2-1.2c-1.2,2.2-2.8,4.2-4.7,5.8-3.8,3.2-8.9,5-14.2,4.5"/>
    <path class="cls-40" d="M64.6,50.4c-5.3-.4-10-3-13.2-6.8-1.6-1.9-2.8-4.1-3.6-6.5l1.3,4.2h32.4l1.9-1.2c-1.2,2.2-2.8,4.2-4.7,5.8-3.8,3.2-8.8,5-14.1,4.5"/>
    <path class="cls-40" d="M64.7,50.2c-5.3-.4-9.9-3-13.1-6.7-1.6-1.9-2.8-4.1-3.6-6.4l1.1,4.3h32.4l1.7-1.3c-1.2,2.2-2.7,4.2-4.6,5.7-3.8,3.2-8.7,4.9-14,4.5"/>
    <path class="cls-30" d="M64.7,50c-5.2-.4-9.8-3-13-6.7-1.6-1.9-2.8-4-3.6-6.4l1,4.4h32.4l1.6-1.4c-1.1,2.2-2.7,4.1-4.6,5.7-3.7,3.1-8.6,4.9-13.9,4.4"/>
    <path class="cls-30" d="M64.7,49.9c-5.2-.4-9.7-2.9-12.8-6.6-1.6-1.8-2.8-4-3.5-6.3l.8,4.4h32.4l1.4-1.5c-1.1,2.2-2.7,4.1-4.5,5.6-3.7,3.1-8.6,4.8-13.8,4.4"/>
    <path class="cls-30" d="M64.7,49.7c-5.1-.4-9.6-2.9-12.7-6.6-1.5-1.8-2.7-4-3.5-6.3l.7,4.5h32.4l1.3-1.5c-1.1,2.2-2.7,4-4.5,5.6-3.7,3.1-8.5,4.8-13.7,4.3"/>
    <path class="cls-66" d="M64.7,49.6c-5.1-.4-9.6-2.9-12.6-6.5-1.5-1.8-2.7-3.9-3.5-6.2l.5,4.5h32.4l1.2-1.6c-1.1,2.1-2.6,4-4.5,5.5-3.6,3.1-8.4,4.7-13.5,4.3"/>
    <path class="cls-66" d="M64.7,49.4c-5.1-.4-9.5-2.9-12.5-6.5-1.5-1.8-2.7-3.9-3.4-6.2l.4,4.5h32.4l1-1.7c-1.1,2.1-2.6,4-4.4,5.5-3.6,3-8.4,4.7-13.4,4.3"/>
    <path class="cls-66" d="M64.7,49.2c-5-.4-9.4-2.8-12.4-6.4-1.5-1.8-2.7-3.9-3.4-6.1l.2,4.6h32.4l.9-1.8c-1.1,2.1-2.6,3.9-4.4,5.4-3.6,3-8.3,4.7-13.3,4.2"/>
    <path class="cls-78" d="M64.8,49.1c-5-.4-9.3-2.8-12.3-6.4-1.5-1.8-2.7-3.8-3.4-6v4.6h32.5l.7-1.8c-1.1,2.1-2.6,3.9-4.3,5.4-3.5,3-8.2,4.6-13.2,4.2"/>
    <path class="cls-1" d="M64.8,48.9c-4.9-.4-9.2-2.8-12.2-6.3-1.5-1.7-2.6-3.8-3.3-6v4.7h32.3l.6-1.9c-1.1,2.1-2.6,3.9-4.3,5.4-3.5,3-8.1,4.6-13.1,4.2"/>
    <path class="cls-1" d="M64.8,48.8c-4.9-.4-9.1-2.8-12.1-6.2-1.5-1.7-2.6-3.7-3.3-5.9v4.8h32.2l.4-2c-1.1,2-2.5,3.8-4.3,5.3-3.5,2.9-8.1,4.5-13,4.1"/>
    <path class="cls-1" d="M64.8,48.6c-4.8-.4-9.1-2.7-12-6.2-1.5-1.7-2.6-3.7-3.3-5.9v4.8h32l.3-2.1c-1.1,2-2.5,3.8-4.2,5.3-3.4,2.9-8,4.5-12.8,4.1"/>
    <path class="cls-33" d="M64.8,48.4c-4.8-.4-9-2.7-11.9-6.1-1.4-1.7-2.6-3.7-3.3-5.8v4.8h31.9l.2-2.1c-1.1,2-2.5,3.8-4.2,5.2-3.4,2.9-7.9,4.5-12.7,4.1"/>
    <path class="cls-77" d="M64.8,48.3c-4.8-.4-8.9-2.7-11.8-6.1-1.4-1.7-2.5-3.6-3.2-5.8v4.9h31.7v-2.2c-1,2-2.4,3.7-4.1,5.2-3.4,2.9-7.8,4.4-12.6,4"/>
    <path class="cls-77" d="M64.8,48.1c-4.7-.4-8.8-2.7-11.6-6-1.4-1.7-2.5-3.6-3.2-5.7v5h31.4v-2.3c-1,2-2.4,3.7-4.1,5.1-3.3,2.8-7.8,4.4-12.5,4"/>
    <path class="cls-50" d="M64.9,48c-4.7-.4-8.7-2.6-11.5-6-1.4-1.7-2.5-3.6-3.2-5.7v5h31.1v-2.4c-1,2-2.4,3.7-4.1,5.1-3.3,2.8-7.7,4.3-12.4,3.9"/>
    <path class="cls-50" d="M64.9,47.8c-4.6-.4-8.6-2.6-11.4-5.9-1.4-1.6-2.5-3.5-3.1-5.6v5h30.8v-2.4c-1,1.9-2.4,3.6-4,5-3.3,2.8-7.6,4.3-12.3,3.9"/>
    <path class="cls-50" d="M64.9,47.6c-4.6-.4-8.6-2.6-11.3-5.9-1.4-1.6-2.4-3.5-3.1-5.6v5.1h30.6v-2.5c-1,1.9-2.4,3.6-4,5-3.3,2.7-7.6,4.2-12.1,3.9"/>
    <path class="cls-43" d="M64.9,47.5c-4.5-.4-8.5-2.6-11.2-5.8-1.4-1.6-2.4-3.5-3.1-5.5v5.1h30.3v-2.6c-1,1.9-2.4,3.6-4,4.9-3.2,2.7-7.5,4.2-12,3.8"/>
    <path class="cls-43" d="M64.9,47.3c-4.5-.4-8.4-2.5-11.1-5.7-1.3-1.6-2.4-3.4-3.1-5.5v5.2h30v-2.7c-1,1.9-2.3,3.5-3.9,4.9-3.2,2.7-7.4,4.2-11.9,3.8"/>
    <path class="cls-43" d="M64.9,47.2c-4.4-.4-8.3-2.5-11-5.7-1.3-1.6-2.4-3.4-3-5.4v5.3h29.7v-2.7c-1,1.9-2.3,3.5-3.9,4.8-3.2,2.7-7.3,4.1-11.8,3.8"/>
    <path class="cls-55" d="M64.9,47c-4.4-.4-8.2-2.5-10.9-5.6-1.3-1.6-2.3-3.4-3-5.4v5.3h29.4v-2.8c-1,1.8-2.3,3.5-3.8,4.8-3.1,2.6-7.3,4.1-11.7,3.7"/>
    <path class="cls-55" d="M64.9,46.8c-4.4-.4-8.2-2.5-10.8-5.6h0s26.1,0,26.1,0v-2.9c-1,1.8-2.3,3.4-3.8,4.7-3.1,2.6-7.2,4-11.6,3.7"/>
    <path class="cls-10" d="M65,46.7c-4.3-.4-8.1-2.4-10.7-5.5h0c0,.1,25.9.1,25.9.1v-3c-1,1.8-2.2,3.4-3.8,4.7-3.1,2.6-7.1,4-11.4,3.6"/>
    <path class="cls-10" d="M65,46.5c-4.3-.4-8-2.4-10.6-5.5v.3h25.6v-3c-.9,1.8-2.2,3.4-3.7,4.6-3,2.6-7,4-11.3,3.6"/>
    <path class="cls-41" d="M65,46.4c-4.2-.4-7.9-2.4-10.4-5.4v.4h25.3v-3.1c-.9,1.8-2.2,3.3-3.7,4.6-3,2.5-7,3.9-11.2,3.6"/>
    <path class="cls-41" d="M65,46.2c-4.2-.4-7.8-2.4-10.3-5.3v.5h25.1v-3.2c-.9,1.7-2.2,3.3-3.6,4.5-3,2.5-6.9,3.9-11.1,3.5"/>
    <path class="cls-41" d="M65,46c-4.1-.4-7.7-2.3-10.2-5.3v.6h24.8v-3.3c-.9,1.7-2.1,3.2-3.6,4.5-2.9,2.5-6.8,3.8-11,3.5"/>
    <path class="cls-52" d="M65,45.9c-4.1-.3-7.7-2.3-10.1-5.2v.7h24.5v-3.3c-.9,1.7-2.1,3.2-3.6,4.4-2.9,2.5-6.8,3.8-10.8,3.5"/>
    <path class="cls-52" d="M65,45.7c-4-.3-7.6-2.3-10-5.2v.8h24.3v-3.4c-.9,1.7-2.1,3.2-3.5,4.4-2.9,2.4-6.7,3.8-10.7,3.4"/>
    <path class="cls-52" d="M65.1,45.6c-4-.3-7.5-2.3-9.9-5.1v.9h24v-3.5c-.9,1.7-2.1,3.1-3.5,4.3-2.8,2.4-6.6,3.7-10.6,3.4"/>
    <path class="cls-79" d="M65.1,45.4c-4-.3-7.4-2.2-9.8-5.1v1h23.7v-3.6c-.9,1.7-2,3.1-3.5,4.3-2.8,2.4-6.5,3.7-10.5,3.3"/>
    <path class="cls-79" d="M65.1,45.2c-3.9-.3-7.3-2.2-9.7-5v1.1h23.5v-3.6c-.9,1.6-2,3.1-3.4,4.3-2.8,2.3-6.5,3.6-10.4,3.3"/>
    <path class="cls-79" d="M65.1,45.1c-3.9-.3-7.2-2.2-9.6-4.9v1.2h23.2v-3.7c-.8,1.6-2,3-3.4,4.2-2.8,2.3-6.4,3.6-10.3,3.3"/>
    <path class="cls-83" d="M65.1,44.9c-3.8-.3-7.2-2.2-9.5-4.9v1.3h22.9v-3.8c-.8,1.6-2,3-3.3,4.2-2.7,2.3-6.3,3.6-10.1,3.2"/>
    <path class="cls-83" d="M65.1,44.8c-3.8-.3-7.1-2.1-9.3-4.8v1.4h22.7v-3.9c-.8,1.6-2,3-3.3,4.1-2.7,2.3-6.2,3.5-10,3.2"/>
    <path class="cls-22" d="M65.1,44.6c-3.7-.3-7-2.1-9.2-4.8v1.5h22.4v-3.9c-.8,1.6-1.9,2.9-3.3,4.1-2.7,2.2-6.2,3.5-9.9,3.2"/>
    <path class="cls-22" d="M65.2,44.4c-3.7-.3-6.9-2.1-9.1-4.7v1.6h18.9c-2.6,2.2-6.1,3.4-9.8,3.1"/>
    <path class="cls-22" d="M65.2,44.3c-3.6-.3-6.8-2.1-9-4.7v1.7h18.7c-2.6,2.1-6,3.3-9.7,3"/>
    <path class="cls-39" d="M65.2,44.1c-3.6-.3-6.7-2-8.9-4.6v1.8h18.5v-.3c-2.6,2.2-6,3.4-9.6,3"/>
    <path class="cls-75" d="M65.2,44c-3.6-.3-6.7-2-8.8-4.6v1.9h18.2v-.4c-2.5,2.1-5.9,3.3-9.4,3"/>
    <path class="cls-75" d="M65.2,43.8c-3.5-.3-6.6-2-8.7-4.5v2h18v-.5c-2.5,2.1-5.8,3.3-9.3,3"/>
    <path class="cls-75" d="M65.2,43.6c-3.5-.3-6.5-2-8.6-4.4v2.1h17.8v-.6c-2.5,2.1-5.7,3.2-9.2,2.9"/>
    <path class="cls-38" d="M65.2,43.5c-3.4-.3-6.4-1.9-8.5-4.4v2.2h17.6v-.7c-2.4,2.1-5.7,3.2-9.1,2.9"/>
    <path class="cls-24" d="M65.2,43.3c-3.4-.3-6.3-1.9-8.4-4.3v2.3h17.3v-.9c-2.4,2-5.6,3.1-9,2.9"/>
    <path class="cls-24" d="M65.3,43.2c-3.3-.3-6.2-1.9-8.3-4.3v2.4h17.1v-1c-2.4,2-5.5,3.1-8.9,2.8"/>
    <path class="cls-47" d="M65.3,43c-3.3-.3-6.2-1.9-8.1-4.2v2.5h16.9v-1.1c-2.3,2-5.4,3.1-8.7,2.8"/>
    <path class="cls-47" d="M65.3,42.8c-3.2-.3-6.1-1.8-8-4.2v2.6h16.7v-1.2c-2.3,2-5.4,3-8.6,2.7"/>
    <path class="cls-18" d="M65.3,42.7c-3.2-.3-6-1.8-7.9-4.1v2.7h16.4v-1.4c-2.3,1.9-5.3,3-8.5,2.7"/>
    <path class="cls-37" d="M65.3,42.5c-3.2-.3-5.9-1.8-7.8-4v2.8h16.2v-1.5c-2.2,1.9-5.2,2.9-8.4,2.7"/>
    <path class="cls-37" d="M65.3,42.4c-3.1-.3-5.8-1.8-7.7-4v2.9h16v-1.6c-2.2,1.9-5.2,2.9-8.3,2.6"/>
  </g>
  <path class="cls-46" d="M19.6,44.6c.8-3.2,2-6.3,4.4-8.2l4.7-3.2c2.4-.6,4.4-2.5,5.9-4.4l.8-.6c.8-1.3,1.6-1.3,1.6.6l-.4.6c0,.6,0,2.5-.4,1.3,0,2.5-.4,1.9-.8,0,.4,2.5-.8,5.1-.8,1.3,0,2.5,0,4.4-.8,3.8q0-.6-.4-.6v-1.3c0-.6-.4-1.3-.8-.6l-.4-.6v.6c.4,0,.8.6.8,1.9s0,1.9-.4,1.3l-.4-1.3.4,1.3c-.8.6-1.2.6-1.2,0,0-1.3,0-1.9-.4-1.9.8,1.3.8,1.9,0,3.2-.4,0-.8-1.3-.8-1.9.4.6,0,1.3-.4,1.9v-1.9c0,1.3-.4,1.9-1.2,1.3v-1.3c-.4,1.9-.8,1.9-1.6,1.9v-1.3c0,1.3-.8,1.3-.8.6-1.2-.6-2-.6-2.8.6l-.8,1.3-.8,1.3c-.4.6-.8,1.9-1.2,3.2,0,1.3-.4,1.9-.8,2.5h-1.2c-.8-4.4-2.4-7-4.4-9.5-.4-.6-.8-.6-1.2.6-.4,0-.4-.6-.4-1.9-.8,2.5-1.2,0-.8-1.3-.4,1.9-2,1.9-1.2,0q0-.6-.4-.6c-.4,2.5-1.6,1.3-.4-.6l-.8-.6c0,.6-.8,1.3-1.2,1.3l.8-2.5c-2,3.2-2,1.9-1.6-.6-.8,3.2-2,3.2-1.2-1.3-.8,1.9-1.6,1.3-.8-1.3-.4,3.2-2,1.9-.8-1.3-.4.6-.4,1.3-.4,1.3,0,2.5-1.6,1.9-1.2,0l1.2-1.9c-1.2,1.9-2,1.3-1.2,0l1.6-.6c-2.4.6-2.4-1.9-.4-1.9-1.6-.6-.8-3.2.4-1.9l.4,1.3.8,2.5,2.4,3.2,2,2.5c1.6.6,3.2,1.9,4,3.8,1.6,1.9,2.8,4.4,4,6.3.8.6,1.6,1.9,1.6,3.8"/>
  <path class="cls-46" d="M20,41.5c1.6-3.8,3.6-8.2,5.5-11.4.8-1.3,2-2.5,2.8-3.2,1.2-1.3,2.4-3.8,3.6-5.7,1.6-3.8,1.6-4.4,2.4-4.4,1.2-.6,1.6.6,0,.6,1.6.6.8,1.3,0,1.9,1.6.6.8,1.9,0,1.3-.8-.6-1.2,0-1.2.6.8,0,1.2.6,1.2,1.3h-2c2.4,0,2.8,1.3.4,1.3,1.6,0,2,1.9.8,1.9l-.8-1.9c.4.6,1.2,2.5,0,1.9-.4,0-.8-.6-.8-1.3l.8,1.3c-.4,1.3-.8,1.9-1.2.6l-.8-1.3,1.2,1.9q0,.6-.4.6c-.4,0-.4-.6-.8-.6h-.8c.4,0,1.2,0,1.6,1.3.4,1.3,0,1.9-.8,1.3l-.4-1.3-.8-.6.8.6.4,1.9s-.4.6-.4,0c-.4-1.3-1.2-1.9-2-1.9.8.6,1.6,1.3,1.6,2.5h-.4c0-.6-.4-1.3-.8-1.9.4.6.8,1.3.8,2.5-.4.6-.8.6-1.2.6v-1.3s-.4-.6-.8-.6c.8,0,.8.6.8,1.3-.4.6-.4,0-.8-.6-.4,1.3-.4,0-.4-.6,0,1.3-.4,1.3-1.2,1.3-.8.6-1.6,1.3-2,2.5l-1.2,2.5-.8,2.5c-1.2,1.3-2,3.8-2.4,5.7,0-1.9-.8-3.2-2-4.4l-.4-2.5-2.4-5.7q-1.6-.6-.8-2.5l-.4,1.3c-1.2.6-1.6,0-.8-1.9l.4-.6-.4.6-.4.6c0,1.3-.8.6-.4-.6l.4-1.3-.8,1.9c-.4.6-1.2-.6-.4-1.9l.4-.6-.8,1.3c-.8,0-1.2-.6-.4-1.3l.4-.6-.8.6v-1.3c0-1.3,0-.6-.8,0-.4-.6-.4-1.3.4-1.9.4-.6.8-1.3-.8-1.3-.8,1.9-.8,1.3-.8-.6q.4-.6.8-.6c.8,0,.8-1.3-.4-1.3-.4,1.3-1.6-.6-.4-1.9.4,0,.8,0,.8.6,0-.6-.4-.6-1.6-.6s-.4-1.9.8-1.9h.8l-1.2-1.3,1.6,1.3c-.8-1.9-1.6-1.9-2.8-.6,0-2.5,1.6-3.2,2.4-1.9,0-.6-.4-.6-1.2-.6,0-1.3.4-1.3,1.2-.6l.8,1.3c0,1.3.4,2.5.4,3.8s0,2.5.4,3.2l1.6,2.5,5.5,13.3c.4,1.9.8,3.2,1.6,4.4l.8.6Z"/>
  <path class="cls-46" d="M34.2,16.1c.4,0,.4-.6,0-1.3,0-1.9-1.2-.6-1.2.6v2.5c0-1.9-.8-1.3-.8,0v1.3c0-1.3-.8-.6-.8,1.3v.6c-.4-1.3-.4-.6-.8,1.3-.4.6-.8,1.9-1.2,3.2.8-1.9,2-3.2,2.4-5.1.8-1.9,1.6-3.8,2.4-4.4"/>
  <path class="cls-46" d="M3.4,21.8c-1.2-.6-2,1.9-.8,1.9.4-.6.8-.6,1.2-.6l-.4-1.3Z"/>
  <path class="cls-46" d="M13.3,7.2c-.4-2.5-1.2-1.9-1.2,0-.4-1.9-1.2.6-.4,1.9-.4-1.3-1.6-.6-.8.6-1.6,1.3,0,1.9.8.6-1.6,1.3-1.6,2.5-1.2,3.2.4,0,1.6-.6,1.6-.6-1.6.6-1.6,3.2-.4,1.9-1.2,1.9-.4,1.9.4,1.3h.8c-.8,0-1.6.6-1.2,1.3,0,1.3,0,1.9.4,1.3,0-.6.8-.6,1.2-.6-2,0-1.2,2.5-.8,1.9,0,0,.4-1.3.8-1.3-.8.6-.8,1.3-.4,1.3-.4,1.9.4,2.5,1.2,1.3-1.6,2.5.4,3.8.4.6v1.9c-.4,1.3,0,2.5.4,1.9,0,1.3.4,1.9.8,1.3.8.6,1.2,2.5,1.2,5.1l.8,4.4.8,3.2.8,1.3c0-1.9-.4-3.2-.8-4.4-.4-1.3-.8-3.2-.8-4.4l-.4-2.5-2-7.6c-.8-3.8-1.6-7.6-2-11.4-.4-.6-.4-1.3,0-1.9v-1.3Z"/>
  <path class="cls-46" d="M19.2,40.2c.8-2.5,1.2-4.4,2.4-4.4l3.2-9.5c1.2-2.5,2.4-4.4,2.8-7.6.8-1.9,1.6-3.8,2-5.1,0-2.5.4-3.8.8-5.7.8,0,1.2,0,1.2.6.8.6.8,1.9-.4,2.5.4.6.4,1.3-.4,1.9,1.2-.6,1.6.6.8,1.9.4,1.3,0,1.9-1.2,0,0,0-1.2.6,0,.6.4.6.4,1.3.4,2.5,0,0-.8-1.3-1.6-1.3,1.2,0,2,3.2.4,1.9,1.2,0,.8,3.8-.4,1.3l-.4-.6c-.4,0-.8.6-.8,1.3,1.2-1.9,2.4,5.1,0,1.3.8,1.3.8,2.5,0,3.8-.4-1.3-.8-2.5-1.2-1.9.8-.6,1.2,2.5,0,1.9.4,1.9-.4,3.2-.8,1.3q-.4-.6-.8-.6c1.6,1.3.4,1.9-.4.6,1.6,1.9.4,2.5,0,2.5h-.8c-1.2,2.5-2,5.1-2.4,7.6l-1.6,4.4-.8-1.3Z"/>
  <path class="cls-46" d="M19.2,38.9c.8-2.5,1.6-5.1,1.6-7,.4-3.8.8-7.6,1.6-10.1.4-4.4.8-8.9,1.6-12l.8-4.4c0-3.2,2-5.7,1.6-2.5.8-.6,2,.6,0,1.3,0,.6-.4,1.3-.8,1.3.8-1.3,1.6-1.9,2-1.3.8.6-.4,1.9-1.2,1.3h-.8c2.4-.6,2.4,3.2.4,1.9,0-.6,0,0-.4,0h.4c.4,0,.8.6,1.2.6.4.6,0,1.3-.4,1.9-.8,0-1.2,0-1.6.6.4-.6.8-.6,1.6-.6.8,1.3.8,1.9,0,2.5-.8-1.3-1.2-1.3-2,0,1.2-.6,2.4.6,1.2,1.9l-1.6-.6c.4,0,.4.6.8.6.8.6,1.2,1.3.8,1.9-.4,1.3-.8.6-1.2-.6h-.8c2,.6,2.8,3.8.8,3.8-.4-.6-.8-1.3-1.2-1.3,1.6,1.3,1.6,3.2.4,2.5.8,0,.8,1.9,0,2.5h-.4c.8,0,.4.6-.4,1.3-1.2,1.3-1.6,4.4-2,8.2,0,1.9-.8,4.4-2,7.6v-1.3Z"/>
  <path class="cls-46" d="M16.8,4l.8,3.2c0-1.9,0-2.5-.4-3.2.8-1.9,0-3.2-.4-1.3,0-1.9-.8-1.3-1.2.6-.8,0-1.2,1.9,0,2.5q.4.6.8,1.3c-1.2-.6-1.6,0-.8,1.3.4,0,.8.6,1.2,1.3-1.2-1.3-2,.6-.8,1.3.4,0,1.2.6,1.2,1.9,0-.6-.4-.6-1.2-.6s-.8.6,0,1.9c.4,0,.8,0,1.2,1.3-.4-.6-.8-1.3-1.2-.6-.4,0-.4,1.3.4,1.3s.8.6,1.2,1.9c-.4-.6-.8-.6-1.2-.6s-.4,4.4.4,1.9c.4,0,.4.6,0,1.3-.4,0-.4,1.3,0,1.9l.4-.6c0-.6.4,0,0,.6-.4,1.3,0,1.9.4.6,0,.6,0,1.3.4,1.9.4,1.3.8,1.9.8,3.2-.4,2.5,0,5.7,0,8.9l.4,1.9.4-1.9c-.4-.6-.4-1.9,0-2.5,0-2.5,0-5.7-.4-8.2l-.8-7-.4-3.8v-3.8c0-.6-.4-1.3-.4-2.5v-1.3l-.8-3.8Z"/>
  <path class="cls-46" d="M19.6,32.6c.4-2.5.8-5.1.8-8.2l-.4-.6c0-.6-.4-1.3-.4-1.3v-1.9c-.4-1.3,0-2.5.4-3.8-.8.6-1.2,0-1.2-1.3.4-.6.8-1.3,1.2-1.3-1.2.6-1.6-3.2.4-1.3,0-1.3-.8-.6-1.2-.6-.8,0-.4-1.9.4-1.9-1.2.6-1.2-1.9,0-1.9h-.8c-.4-1.9,0-2.5,1.2-.6,0-.6-.4-.6-.8-1.3-1.2-1.3,0-3.2,1.2-1.3-1.2-1.3-1.6-2.5-.8-3.2l.8-.6c.4-1.3.8-1.9,1.6-1.3l-.4.6c.8-1.9,1.6.6.4,1.3h.4c.8,0,.8.6.8,1.3s0,1.3-.8.6c0,.6-.4.6-.4.6.4,0,.4.6,0,1.3,1.2,0,.8,2.5,0,1.9.8,0,1.6,1.9.4,1.9.4,0,1.2.6.4,1.9l-.4.6c.8,1.3,0,1.9-.4,1.9l.4.6c.4,0,.4.6,0,.6,0,1.3-.4,1.3-1.2,1.3,1.2.6,1.6,1.3.8,3.2-.4-.6-.8,0-.4.6.8.6.4,1.9,0,1.9-.4.6-.8,1.3-.8,1.9l-.4,5.7.4,1.9c-.4,1.9-.8,3.8-1.2,5.1v-4.4Z"/>
  <path class="cls-46" d="M20.4,23.7v-1.3l.4,1.9.4-.6c-.8-1.9-.4-3.8-.4-6.3v-5.1,3.2l-.4,5.1c0,1.3,0,1.9-.4,2.5l.4.6Z"/>
  <path class="cls-46" d="M21.2,11c0-.6,0-1.3.4-1.9l-.4-.6c-.4.6-.4,1.9-.4,2.5h.4Z"/>
  <path class="cls-46" d="M20.8,7.9h0c.4-.6.4-1.9.4-3.2l-.4-1.9q0-.6.4-1.3h-.4v6.3Z"/>
  <rect class="cls-11" x="1.6" y="60.2" width="172.7" height="1.4"/>
  <g>
    <polygon class="cls-11" points="0 44.5 2.5 44.5 2.5 56.6 4.1 56.6 4.1 44.5 6.6 44.5 6.6 43 0 43 0 44.5"/>
    <path class="cls-11" d="M10.4,46.6c0,0-.1,0-.2,0-.8,0-1.7.7-2,1.6v-1.4h-1.6,0c0,.3,0,.6,0,.9,0,.6,0,1.1,0,1.7v7.2h1.6v-5.4c0-.3,0-.6,0-.9.2-1.2.9-2,1.8-2s.2,0,.3,0h0s0-1.7,0-1.7h0s0,0-.1,0Z"/>
    <path class="cls-11" d="M16.8,54.3v-4.2c0-2.3-1-3.5-2.8-3.5s-1.9.3-2.3.7h0s.4,1.2.4,1.2h0c.5-.4,1-.5,1.6-.5,1,0,1.5.6,1.5,2.2v.3c-3,0-4.1,1.9-4.1,3.6s1,2.8,2.4,2.8,1.5-.4,1.9-1.2v1h1.6,0c0-.7,0-1.5,0-2.3ZM13.8,55.4c-.5,0-1.1-.4-1.1-1.7s.9-2.2,2.6-2.2v1.9c0,.2,0,.4,0,.5-.2.9-.7,1.4-1.4,1.4Z"/>
    <path class="cls-11" d="M21.6,52.3v.2c-.2.6-.3,1.4-.4,2.1-.1-.7-.2-1.5-.4-2.2l-1.2-5.5h-1.7l2.5,9.8h1.5l2.5-9.8h-1.6l-1.2,5.5Z"/>
    <path class="cls-11" d="M28.3,46.6c-2,0-3.3,2-3.3,5.2s1.3,4.9,3.6,4.9,1.6-.2,2.1-.5h0s-.3-1.3-.3-1.3h0c-.4.3-1,.4-1.6.4-1.5,0-2.2-1.1-2.3-3.5h4.5c0-.3,0-.5,0-.9,0-2.1-.7-4.3-2.8-4.3ZM28.1,47.9c.3,0,.5.1.7.3.4.5.7,1.3.7,2.4h-2.9c0-1.4.6-2.7,1.5-2.7Z"/>
    <rect class="cls-11" x="32.7" y="42.6" width="1.6" height="14"/>
    <rect class="cls-11" x="36.5" y="42.6" width="1.6" height="14"/>
    <path class="cls-11" d="M43.2,46.6c-2,0-3.3,2-3.3,5.2s1.3,4.9,3.6,4.9,1.6-.2,2.1-.5h0s-.3-1.3-.3-1.3h0c-.4.3-1,.4-1.6.4-1.5,0-2.2-1.1-2.3-3.5h4.5c0-.3,0-.5,0-.9,0-2.1-.7-4.3-2.8-4.3ZM43,47.9c.3,0,.5.1.7.3.4.5.7,1.3.7,2.4h-2.9c0-1.4.6-2.7,1.5-2.7Z"/>
    <path class="cls-11" d="M51.2,46.6c0,0-.1,0-.2,0-.8,0-1.7.7-2,1.6v-1.4h-1.6,0c0,.3,0,.6,0,.9,0,.6,0,1.1,0,1.7v7.2h1.6v-5.4c0-.3,0-.6,0-.9.2-1.2.9-2,1.8-2s.2,0,.3,0h0s0-1.7,0-1.7h0s0,0-.1,0Z"/>
    <path class="cls-11" d="M54.8,50.8c-.9-.6-1.2-1-1.2-1.6s.4-1.2,1.2-1.2.8.1,1.3.4h0s.5-1.2.5-1.2h0c-.6-.4-1.1-.5-1.8-.5-1.5,0-2.7,1.2-2.7,2.7s.6,1.9,2,2.8c1,.7,1.2,1.2,1.2,1.9s-.5,1.4-1.4,1.4-1.4-.4-1.5-.5h0s-.4,1.2-.4,1.2h0c.4.4,1.2.6,2,.6,1.8,0,3-1.2,3-2.9s-1.1-2.4-2-3Z"/>
    <path class="cls-11" d="M67.5,71.7c1.3-.5,2-1.6,2-3s-.3-1.8-.9-2.3c-.7-.6-1.7-.9-3-.9s-1.6,0-2.3.3h0v13.2h0c.5.1,1.1.1,2,.1,1.6,0,2.8-.4,3.6-1.2.6-.7,1-1.6,1-2.7,0-1.7-.9-3-2.4-3.4ZM65.7,77.8c-.3,0-.5,0-.7,0v-5.2h.6c1.2,0,2.7.7,2.7,2.7s-1,2.6-2.6,2.6ZM67.9,68.9c0,1.3-1,2.3-2.3,2.3h-.6v-4.4c.2,0,.5,0,.8,0,1.8,0,2.2,1.2,2.2,2.1Z"/>
    <path class="cls-11" d="M74.5,69.1c-2,0-3.3,2-3.3,5.1s1.3,4.9,3.5,4.9,1.6-.2,2.1-.5h0s-.3-1.2-.3-1.2h0c-.4.3-1,.4-1.6.4-1.5,0-2.2-1.1-2.2-3.5h4.5c0-.3,0-.5,0-.9,0-2.1-.7-4.3-2.8-4.3ZM74.3,70.4c.3,0,.5.1.7.3.4.4.7,1.3.7,2.4h-2.9c0-1.3.6-2.7,1.5-2.7Z"/>
    <path class="cls-11" d="M84,76.7v-4.1c0-2.3-.9-3.5-2.8-3.5s-1.8.3-2.3.6h0s.4,1.2.4,1.2h0c.5-.4,1-.5,1.6-.5,1,0,1.5.6,1.5,2.1v.2c-3,0-4.1,1.9-4.1,3.5s1,2.8,2.3,2.8,1.5-.4,1.9-1.2v1h1.6,0c0-.7,0-1.5,0-2.2ZM81,77.9c-.5,0-1.1-.4-1.1-1.7s.9-2.2,2.5-2.2v1.9c0,.2,0,.4,0,.5-.2.9-.7,1.4-1.4,1.4Z"/>
    <path class="cls-11" d="M89.4,70.5c.5,0,.9.2,1.1.3h0s.3-1.3.3-1.3h0c-.3-.2-.8-.3-1.4-.3-2.3,0-3.8,2.1-3.8,5.1s1.3,4.9,3.6,4.9,1.2-.1,1.6-.4h0s-.2-1.3-.2-1.3h0c-.4.2-.7.3-1.1.3-1.4,0-2.2-1.3-2.2-3.5s.7-3.7,2.2-3.7Z"/>
    <path class="cls-11" d="M95.7,69.1c-.5,0-.9.1-1.3.4-.3.2-.6.5-.8.8v-5.1h-1.6v13.8h1.6v-6.3c0-.3,0-.5,0-.7.2-1,.7-1.5,1.4-1.5s1.2.8,1.2,2.2v6.2h1.6v-6.4c0-2.2-.9-3.4-2.3-3.4Z"/>
    <polygon class="cls-11" points="108.6 71.2 104.9 71.2 104.9 65.5 103.3 65.5 103.3 79 104.9 79 104.9 72.7 108.6 72.7 108.6 79 110.2 79 110.2 65.5 108.6 65.5 108.6 71.2"/>
    <path class="cls-11" d="M115.1,69.1c-1.6,0-3.3,1.3-3.3,5s.8,5,3.2,5,1.6-.4,2.2-1.1c.7-.9,1.1-2.2,1.1-3.9,0-3.7-1.6-5-3.1-5ZM115.1,77.8c-1.4,0-1.6-2.3-1.6-3.7s.2-3.7,1.6-3.7,1.6,2.6,1.6,3.7-.1,3.7-1.5,3.7Z"/>
    <path class="cls-11" d="M121.9,66.7l-1.6.5v2.1h-1.2v1.3h1.2v5.5c0,1.3.2,2,.6,2.5.4.4.9.6,1.5.6s.8,0,1.1-.2h0s0-1.3,0-1.3h0c-.2,0-.4,0-.6,0-.6,0-1-.5-1-1.5v-5.6h1.8v-1.3h-1.8v-2.6Z"/>
    <path class="cls-11" d="M127.7,69.1c-2,0-3.3,2-3.3,5.1s1.3,4.9,3.5,4.9,1.6-.2,2.1-.5h0s-.3-1.2-.3-1.2h0c-.4.3-1,.4-1.6.4-1.5,0-2.2-1.1-2.2-3.5h4.5c0-.3,0-.5,0-.9,0-2.1-.7-4.3-2.8-4.3ZM127.5,70.4c.3,0,.5.1.7.3.4.4.7,1.3.7,2.4h-2.9c0-1.3.6-2.7,1.5-2.7Z"/>
    <rect class="cls-11" x="132" y="65.1" width="1.6" height="13.8"/>
    <path class="cls-11" d="M145.6,76.6c1-1.6,1.3-3.7,1.4-4.8h0c0,0-1.4,0-1.4,0h0c0,.6-.2,2.4-.8,3.8-1-1.3-2-2.8-2.5-3.7h0c1.6-1.2,2.3-2.3,2.3-3.6s-1.2-2.8-2.4-2.8c-1.8,0-2.8,1.6-2.8,3.2s.3,2,1,3h0c-1.4,1-2,2.3-2,3.9s1.1,3.8,3.4,3.8,2.2-.5,2.9-1.4c.3.3.4.6.6.8.1.1.2.3.3.4h0s1.8,0,1.8,0l-.5-.7c-.6-.9-1-1.4-1.2-1.7ZM142,77.8c-1.4,0-2.1-1.4-2.1-2.6s.7-2.2,1.1-2.6c.8,1.2,1.7,2.6,2.8,4.1-.5.7-1.2,1.1-1.9,1.1ZM142.1,66.6c.8,0,1.1.8,1.1,1.6s-.5,1.8-1.5,2.6c-.5-.8-.7-1.5-.7-2.4s.3-1.8,1.1-1.8Z"/>
    <path class="cls-11" d="M155,71.4c-1.3-.9-1.9-1.4-1.9-2.7s.6-1.9,1.9-1.9,1.4.3,1.6.4h0s.4-1.4.4-1.4h0c-.3-.3-1.1-.5-1.9-.5-2.1,0-3.6,1.5-3.6,3.6s.8,2.6,2.5,3.8c1.1.8,1.7,1.6,1.7,2.7s-.8,2.2-2.2,2.2-1.4-.2-1.9-.5h0s-.4,1.4-.4,1.4h0c.4.3,1.4.6,2.3.6,2.2,0,3.8-1.6,3.8-3.8s-.7-2.8-2.3-3.9Z"/>
    <path class="cls-11" d="M162.5,69.1c-.6,0-1.4.2-2,1.3v-1.2h-1.5,0c0,.2,0,.4,0,.7,0,.6,0,1.3,0,2.4v10.5h1.6v-4.7c.2.4.7,1,1.7,1,1.5,0,3-1.3,3-5s-1.1-5-2.8-5ZM162,70.5c.5,0,1.6.4,1.6,3.6s-.2,3.6-1.6,3.6-1-.2-1.4-1.6c0-.2,0-.5,0-.8v-2.4c0-.3,0-.5,0-.7,0-.8.7-1.7,1.4-1.7Z"/>
    <path class="cls-11" d="M172.2,78.9c0-.6,0-1.4,0-2.2v-4.1c0-2.3-.9-3.5-2.8-3.5s-1.8.3-2.3.6h0s.4,1.2.4,1.2h0c.5-.4,1-.5,1.6-.5,1,0,1.5.6,1.5,2.1v.2c-3,0-4.1,1.9-4.1,3.5s1,2.8,2.3,2.8,1.5-.4,1.9-1.2v1h1.6,0ZM169.1,77.9c-.5,0-1.1-.4-1.1-1.7s.9-2.2,2.5-2.2v1.9c0,.2,0,.4,0,.5-.2.9-.7,1.4-1.4,1.4Z"/>
  </g>
</svg>